<?xml version="1.0" encoding="UTF-8" standalone="no"?><!DOCTYPE svg PUBLIC "-//W3C//DTD SVG 1.1//EN" "http://www.w3.org/Graphics/SVG/1.1/DTD/svg11.dtd"><svg width="100%" height="100%" viewBox="0 0 24 24" version="1.1" xmlns="http://www.w3.org/2000/svg" xmlns:xlink="http://www.w3.org/1999/xlink" xml:space="preserve" xmlns:serif="http://www.serif.com/" style="fill-rule:evenodd;clip-rule:evenodd;stroke-linecap:round;stroke-linejoin:round;stroke-miterlimit:1.5;"><g><g><g><path d="M5.525,10.364l-0.746,-0.525c0,0 5.942,-5.788 7.802,-7.601c0.319,-0.31 0.814,-0.35 1.179,-0.094c1.673,1.176 6.11,4.296 6.11,4.296l-0.775,0.815c0,0 0.201,0.141 0.389,0.273c0.081,0.057 0.133,0.146 0.142,0.244c0.01,0.098 -0.023,0.195 -0.091,0.267c-1.265,1.329 -6.573,6.909 -7.558,7.945c-0.09,0.095 -0.237,0.11 -0.345,0.034c-0.965,-0.679 -5.383,-3.785 -6.604,-4.644c-0.078,-0.054 -0.127,-0.14 -0.134,-0.235c-0.008,-0.094 0.027,-0.187 0.095,-0.253c0.235,-0.229 0.536,-0.522 0.536,-0.522Z" style="fill:#393d41;"/><path d="M11.937,16.042c-0.018,0.019 -0.046,0.025 -0.07,0.014c-0.024,-0.01 -0.039,-0.035 -0.038,-0.061c0.026,-0.422 0.09,-1.481 0.09,-1.481c0,0 6.202,-6.345 7.739,-7.918c0.056,-0.058 0.141,-0.075 0.215,-0.044c0.073,0.03 0.121,0.103 0.12,0.183c-0.003,0.183 -0.006,0.386 -0.009,0.55c-0.003,0.205 -0.083,0.402 -0.225,0.55c-1.2,1.259 -6.925,7.266 -7.822,8.207Z" style="fill:#4a4a4f;"/><path d="M4.733,10.755c-0.012,0.259 0.109,0.505 0.32,0.654c1.196,0.841 5.207,3.661 6.417,4.512c0.07,0.049 0.161,0.057 0.238,0.019c0.077,-0.038 0.127,-0.114 0.132,-0.199c0.014,-0.305 0.034,-0.706 0.047,-0.974c0.009,-0.179 -0.076,-0.351 -0.225,-0.452c-1.073,-0.727 -5.428,-3.68 -6.592,-4.469c-0.058,-0.039 -0.133,-0.044 -0.195,-0.013c-0.063,0.032 -0.104,0.095 -0.107,0.165c-0.011,0.225 -0.024,0.52 -0.035,0.757Z" style="fill:#262626;"/></g><g><g><path d="M10.817,7.239l0.754,-0.703l0.899,0.651l-0.783,0.74l-0.87,-0.688Z" style="fill:#535d66;"/><path d="M10.743,7.958l0.074,-0.711l0.888,0.674l-0.069,0.736l-0.893,-0.699" style="fill:#262626;"/><path d="M11.693,7.915l-0.067,0.716l0.798,-0.78l0.045,-0.666l-0.776,0.73" style="fill:#4a4a4f;"/></g><g><path d="M9.6,8.468l0.754,-0.704l0.899,0.651l-0.783,0.741l-0.87,-0.688Z" style="fill:#535d66;"/><path d="M9.526,9.186l0.074,-0.711l0.888,0.674l-0.069,0.737l-0.893,-0.7" style="fill:#262626;"/><path d="M10.476,9.143l-0.067,0.716l0.798,-0.779l0.045,-0.667l-0.776,0.73" style="fill:#4a4a4f;"/></g><g><path d="M13.437,4.498l1.227,-1.151l0.9,0.651l-1.256,1.188l-0.871,-0.688Z" style="fill:#535d66;"/><path d="M13.363,5.216l0.074,-0.711l0.889,0.674l-0.069,0.737l-0.894,-0.7" style="fill:#262626;"/><path d="M14.314,5.173l-0.068,0.716l1.271,-1.227l0.046,-0.666l-1.249,1.177" style="fill:#4a4a4f;"/></g><g><path d="M12.005,6.01l0.754,-0.704l0.9,0.652l-0.783,0.74l-0.871,-0.688Z" style="fill:#535d66;"/><path d="M11.932,6.728l0.074,-0.711l0.888,0.674l-0.069,0.737l-0.893,-0.7" style="fill:#262626;"/><path d="M12.882,6.685l-0.068,0.716l0.798,-0.779l0.046,-0.667l-0.776,0.73" style="fill:#4a4a4f;"/></g><g><path d="M7.619,10.287l1.444,-1.452l0.92,0.615l-1.473,1.489l-0.891,-0.652Z" style="fill:#535d66;"/><path d="M7.567,11.007l0.052,-0.713l0.909,0.638l-0.046,0.738l-0.915,-0.663" style="fill:#262626;"/><path d="M8.516,10.926l-0.046,0.718l1.486,-1.529l0.025,-0.667l-1.465,1.478" style="fill:#4a4a4f;"/></g></g><g><g><path d="M12.284,8.305l0.754,-0.704l0.9,0.652l-0.784,0.74l-0.87,-0.688Z" style="fill:#535d66;"/><path d="M12.21,9.023l0.074,-0.71l0.889,0.674l-0.069,0.736l-0.894,-0.7" style="fill:#262626;"/><path d="M13.161,8.98l-0.068,0.716l0.798,-0.779l0.046,-0.667l-0.776,0.73" style="fill:#4a4a4f;"/></g><g><path d="M11.067,9.533l0.754,-0.703l0.899,0.651l-0.783,0.74l-0.87,-0.688Z" style="fill:#535d66;"/><path d="M10.993,10.252l0.074,-0.711l0.889,0.674l-0.07,0.736l-0.893,-0.699" style="fill:#262626;"/><path d="M11.944,10.209l-0.068,0.716l0.798,-0.78l0.045,-0.666l-0.775,0.73" style="fill:#4a4a4f;"/></g><g><path d="M14.904,5.563l1.228,-1.151l0.899,0.652l-1.256,1.187l-0.871,-0.688Z" style="fill:#535d66;"/><path d="M14.831,6.282l0.074,-0.711l0.888,0.674l-0.069,0.736l-0.893,-0.699" style="fill:#262626;"/><path d="M15.781,6.239l-0.067,0.716l1.27,-1.227l0.046,-0.667l-1.249,1.178" style="fill:#4a4a4f;"/></g><g><path d="M13.472,7.075l0.754,-0.703l0.9,0.651l-0.783,0.74l-0.871,-0.688Z" style="fill:#535d66;"/><path d="M13.399,7.794l0.074,-0.711l0.888,0.674l-0.069,0.736l-0.893,-0.699" style="fill:#262626;"/><path d="M14.349,7.751l-0.067,0.716l0.797,-0.78l0.046,-0.666l-0.776,0.73" style="fill:#4a4a4f;"/></g><g><path d="M9.086,11.352l1.445,-1.451l0.919,0.615l-1.473,1.489l-0.891,-0.653Z" style="fill:#535d66;"/><path d="M9.034,12.073l0.053,-0.713l0.908,0.638l-0.046,0.738l-0.915,-0.663" style="fill:#262626;"/><path d="M9.983,11.992l-0.045,0.718l1.485,-1.529l0.026,-0.668l-1.466,1.479" style="fill:#4a4a4f;"/></g></g><g><g><path d="M10.696,12.483l1.039,-1.041l0.919,0.615l-1.066,1.078l-0.892,-0.652Z" style="fill:#535d66;"/><path d="M10.645,13.203l0.052,-0.713l0.909,0.638l-0.047,0.738l-0.914,-0.663" style="fill:#262626;"/><path d="M11.593,13.122l-0.045,0.718l1.079,-1.118l0.026,-0.667l-1.06,1.067" style="fill:#4a4a4f;"/></g><g><path d="M16.787,6.41l0.955,-0.867l0.899,0.651l-0.983,0.904l-0.871,-0.688Z" style="fill:#535d66;"/><path d="M16.713,7.129l0.074,-0.711l0.889,0.674l-0.069,0.736l-0.894,-0.699" style="fill:#262626;"/><path d="M17.664,7.086l-0.068,0.716l0.999,-0.944l0.045,-0.666l-0.976,0.894" style="fill:#4a4a4f;"/></g><g><path d="M12.319,11.017l4.147,-4.213l0.899,0.652l-4.175,4.249l-0.871,-0.688Z" style="fill:#535d66;"/><path d="M12.246,11.735l0.074,-0.711l0.888,0.674l-0.069,0.737l-0.893,-0.7" style="fill:#262626;"/><path d="M13.196,11.692l-0.067,0.716l4.189,-4.288l0.046,-0.667l-4.168,4.239" style="fill:#4a4a4f;"/></g></g><g><g><path d="M6.073,9.181l0.743,-0.719l0.91,0.633l-0.772,0.756l-0.881,-0.67Z" style="fill:#535d66;"/><path d="M6.011,9.901l0.062,-0.712l0.899,0.655l-0.057,0.738l-0.904,-0.681" style="fill:#262626;"/><path d="M6.96,9.838l-0.056,0.717l0.786,-0.795l0.035,-0.668l-0.765,0.746" style="fill:#4a4a4f;"/></g><g><path d="M7.383,7.91l0.743,-0.719l0.91,0.633l-0.771,0.756l-0.882,-0.67Z" style="fill:#535d66;"/><path d="M7.321,8.63l0.063,-0.712l0.899,0.655l-0.058,0.738l-0.904,-0.681" style="fill:#262626;"/><path d="M8.27,8.567l-0.055,0.717l0.785,-0.795l0.035,-0.668l-0.765,0.746" style="fill:#4a4a4f;"/></g><g><path d="M8.693,6.639l0.743,-0.719l0.91,0.633l-0.771,0.756l-0.882,-0.67Z" style="fill:#535d66;"/><path d="M8.631,7.359l0.063,-0.712l0.899,0.655l-0.057,0.738l-0.905,-0.681" style="fill:#262626;"/><path d="M9.581,7.296l-0.056,0.717l0.785,-0.795l0.035,-0.668l-0.764,0.746" style="fill:#4a4a4f;"/></g><g><path d="M9.985,5.386l0.743,-0.719l0.91,0.633l-0.771,0.756l-0.882,-0.67Z" style="fill:#535d66;"/><path d="M9.923,6.106l0.063,-0.712l0.899,0.655l-0.058,0.738l-0.904,-0.681" style="fill:#262626;"/><path d="M10.872,6.043l-0.056,0.717l0.786,-0.795l0.035,-0.668l-0.765,0.746" style="fill:#4a4a4f;"/></g><g><path d="M11.227,4.182l0.743,-0.719l0.91,0.632l-0.772,0.756l-0.881,-0.669Z" style="fill:#535d66;"/><path d="M11.165,4.901l0.062,-0.712l0.899,0.656l-0.057,0.737l-0.904,-0.681" style="fill:#262626;"/><path d="M12.114,4.839l-0.056,0.717l0.785,-0.796l0.036,-0.667l-0.765,0.746" style="fill:#4a4a4f;"/></g><g><path d="M12.46,2.977l0.743,-0.719l0.91,0.632l-0.772,0.756l-0.881,-0.669Z" style="fill:#535d66;"/><path d="M12.398,3.696l0.062,-0.712l0.899,0.655l-0.057,0.738l-0.904,-0.681" style="fill:#262626;"/><path d="M13.347,3.633l-0.056,0.718l0.786,-0.796l0.035,-0.667l-0.765,0.745" style="fill:#4a4a4f;"/></g></g><path d="M11.698,1.171c-0.122,-0.072 -0.278,-0.053 -0.379,0.047c-1.01,0.999 -6.157,6.093 -7.136,7.062c-0.104,0.103 -0.165,0.24 -0.171,0.386c0,0 0,0 0,0.001c-0.012,0.272 0.123,0.531 0.353,0.677c0.443,0.281 1.121,0.711 1.121,0.711l0.563,-0.438c0,0 -1.044,-0.671 -1.367,-0.878c-0.023,-0.014 -0.038,-0.039 -0.041,-0.066c-0.003,-0.027 0.007,-0.054 0.026,-0.073c0.704,-0.693 5.863,-5.78 7.087,-6.986c0.062,-0.061 0.092,-0.148 0.081,-0.234c-0.01,-0.087 -0.06,-0.163 -0.135,-0.208c-0.001,0 -0.001,0 -0.002,-0.001Z" style="fill:url(#_Linear1);"/></g><g><path d="M5.902,3.418l1.718,-1.723l2.661,1.118l-3.252,3.263l-1.127,-2.658Z" style="fill:#ecbf89;"/><path d="M17.16,9.965l2.848,2.839l-2.958,2.967l-2.847,-2.839l2.957,-2.967Z" style="fill:#e05e5e;stroke:#e05e5e;stroke-width:0.32px;"/><path d="M13.514,11.366l1.504,1.499l-0.596,0.597l-1.503,-1.499l0.595,-0.597Z" style="fill:#cecfd1;"/><path d="M15.627,9.246l1.504,1.499l-2.121,2.128l-0.692,-0.69l0.008,-0.008l-0.812,-0.809l2.113,-2.12Z" style="fill:#e3e3e3;"/><path d="M17.691,10.184l-0.566,0.567l-1.503,-1.499l0.565,-0.567l1.504,1.499Z" style="fill:#faf9f9;"/><path d="M7.62,1.695l-1.718,1.723l-0.765,-2.48l2.483,0.757Z"/><path d="M16.439,10.055l-2.14,2.147l-6.767,-6.747l2.139,-2.146l6.768,6.746Z" style="fill:#eb900f;"/><path d="M16.999,9.494l-0.575,0.576l-6.768,-6.746l0.575,-0.577l6.768,6.747Z" style="fill:#ebaa38;"/><path d="M5.882,3.457l0.401,-0.402l1.279,2.381l-0.589,0.59l-1.091,-2.569Z" style="fill:#eda971;"/><path d="M10.227,2.75l-0.563,0.564l-2.353,-1.291l0.35,-0.351l2.566,1.078Z" style="fill:#edce97;"/><path d="M13.514,11.366l-0.008,0.008l0.812,0.809l-0.588,0.589l-6.767,-6.746l0.595,-0.598l5.956,5.938Z" style="fill:#be6309;"/><path d="M7.246,1.988l0.065,0.035l-1.028,1.032l-1.134,-2.11l2.097,1.043Z" style="fill:#1b1e22;"/><path d="M5.146,0.944l0.003,0.001l1.134,2.11l-0.401,0.402l-0.023,-0.054l-0.713,-2.459Z" style="fill:#08090b;"/><path d="M5.146,0.94l-0.001,0l-0.001,-0.003l0.002,0.003Z" style="fill:#606060;"/><path d="M7.579,1.637l0.082,0.035l-0.35,0.351l-0.065,-0.035l-2.097,-1.043l-0.003,-0.005l2.433,0.697Z" style="fill:#2b333d;"/><path d="M5.145,0.94l0.001,0.004l-0.016,-0.009l0.015,0.005Z" style="fill:#606060;"/><path d="M5.146,0.94l0.003,0.005l-0.003,-0.001l-0.001,-0.004l0.001,0Z" style="fill:#606060;"/></g></g><text x="3.47px" y="21.146px" style="font-family:'SitkaSmall', 'Sitka';font-size:7.237px;fill:#262626;">Y<tspan x="7.871px 12.049px 16.241px " y="21.146px 21.146px 21.146px ">aya</tspan></text><defs><linearGradient id="_Linear1" x1="0" y1="0" x2="1" y2="0" gradientUnits="userSpaceOnUse" gradientTransform="matrix(0.217483,0.228991,-0.228991,0.217483,8.15959,4.6752)"><stop offset="0" style="stop-color:#535d66;stop-opacity:1"/><stop offset="1" style="stop-color:#4a4a4f;stop-opacity:1"/></linearGradient></defs></svg>